<svg width="25" height="24" viewBox="0 0 25 24" fill="none" xmlns="http://www.w3.org/2000/svg">
<circle cx="12.5" cy="12" r="12" fill="url(#paint0_radial_6532_112206)"/>
<circle cx="12.5" cy="12" r="12" fill="url(#paint1_radial_6532_112206)"/>
<path d="M12.5015 4.80005C10.546 4.80005 10.3006 4.8086 9.53263 4.84355C8.76612 4.87865 8.24291 5 7.78511 5.17805C7.31155 5.36195 6.90985 5.60795 6.50964 6.0083C6.10914 6.4085 5.86314 6.8102 5.67864 7.2836C5.50013 7.74155 5.37863 8.2649 5.34413 9.0311C5.30978 9.7991 5.30078 10.0446 5.30078 12C5.30078 13.9554 5.30948 14.2001 5.34428 14.9681C5.37953 15.7346 5.50088 16.2578 5.67879 16.7156C5.86284 17.1891 6.10884 17.5908 6.50919 17.991C6.90925 18.3915 7.31095 18.6381 7.78421 18.822C8.24231 19.0001 8.76567 19.1214 9.53203 19.1565C10.3 19.1915 10.5453 19.2 12.5006 19.2C14.4561 19.2 14.7008 19.1915 15.4688 19.1565C16.2353 19.1214 16.7591 19.0001 17.2172 18.822C17.6906 18.6381 18.0917 18.3915 18.4918 17.991C18.8923 17.5908 19.1383 17.1891 19.3228 16.7157C19.4998 16.2578 19.6213 15.7344 19.6573 14.9682C19.6918 14.2002 19.7008 13.9554 19.7008 12C19.7008 10.0446 19.6918 9.79925 19.6573 9.03125C19.6213 8.26475 19.4998 7.74155 19.3228 7.28375C19.1383 6.8102 18.8923 6.4085 18.4918 6.0083C18.0913 5.6078 17.6908 5.3618 17.2168 5.17805C16.7578 5 16.2342 4.87865 15.4677 4.84355C14.6997 4.8086 14.4552 4.80005 12.4992 4.80005H12.5015ZM11.8555 6.09755C12.0473 6.09725 12.2612 6.09755 12.5015 6.09755C14.4239 6.09755 14.6517 6.10445 15.4109 6.13895C16.1129 6.17105 16.4939 6.28835 16.7477 6.3869C17.0837 6.5174 17.3233 6.6734 17.5751 6.9254C17.8271 7.1774 17.9831 7.4174 18.1139 7.7534C18.2125 8.0069 18.3299 8.3879 18.3619 9.0899C18.3964 9.8489 18.4039 10.0769 18.4039 11.9984C18.4039 13.9199 18.3964 14.1479 18.3619 14.9069C18.3298 15.6089 18.2125 15.9899 18.1139 16.2434C17.9834 16.5794 17.8271 16.8186 17.5751 17.0705C17.3231 17.3225 17.0839 17.4785 16.7477 17.609C16.4942 17.708 16.1129 17.825 15.4109 17.8571C14.6519 17.8916 14.4239 17.8991 12.5015 17.8991C10.5789 17.8991 10.351 17.8916 9.59203 17.8571C8.89002 17.8247 8.50901 17.7074 8.25506 17.6088C7.91906 17.4783 7.67906 17.3223 7.42705 17.0703C7.17505 16.8183 7.01905 16.5789 6.88825 16.2428C6.7897 15.9893 6.67225 15.6083 6.6403 14.9063C6.60579 14.1473 6.59889 13.9193 6.59889 11.9966C6.59889 10.0739 6.60579 9.8471 6.6403 9.0881C6.6724 8.3861 6.7897 8.0051 6.88825 7.7513C7.01875 7.4153 7.17505 7.1753 7.42705 6.9233C7.67906 6.6713 7.91906 6.5153 8.25506 6.3845C8.50886 6.2855 8.89002 6.1685 9.59203 6.13625C10.2562 6.10625 10.5136 6.09725 11.8555 6.09575V6.09755ZM16.3448 7.29305C15.8678 7.29305 15.4808 7.6796 15.4808 8.15675C15.4808 8.63375 15.8678 9.02075 16.3448 9.02075C16.8218 9.02075 17.2088 8.63375 17.2088 8.15675C17.2088 7.67975 16.8218 7.29275 16.3448 7.29275V7.29305ZM12.5015 8.30255C10.4595 8.30255 8.80392 9.9581 8.80392 12C8.80392 14.042 10.4595 15.6968 12.5015 15.6968C14.5434 15.6968 16.1984 14.042 16.1984 12C16.1984 9.9581 14.5433 8.30255 12.5013 8.30255H12.5015ZM12.5015 9.60005C13.8269 9.60005 14.9015 10.6745 14.9015 12C14.9015 13.3254 13.8269 14.4 12.5015 14.4C11.1759 14.4 10.1014 13.3254 10.1014 12C10.1014 10.6745 11.1759 9.60005 12.5015 9.60005V9.60005Z" fill="white"/>
<defs>
<radialGradient id="paint0_radial_6532_112206" cx="0" cy="0" r="1" gradientUnits="userSpaceOnUse" gradientTransform="translate(6.87503 25.8485) rotate(-90) scale(23.7858 22.1226)">
<stop stop-color="#FFDD55"/>
<stop offset="0.1" stop-color="#FFDD55"/>
<stop offset="0.5" stop-color="#FF543E"/>
<stop offset="1" stop-color="#C837AB"/>
</radialGradient>
<radialGradient id="paint1_radial_6532_112206" cx="0" cy="0" r="1" gradientUnits="userSpaceOnUse" gradientTransform="translate(-3.52013 1.72892) rotate(78.6806) scale(10.6323 43.827)">
<stop stop-color="#3771C8"/>
<stop offset="0.128" stop-color="#3771C8"/>
<stop offset="1" stop-color="#6600FF" stop-opacity="0"/>
</radialGradient>
</defs>
</svg>
