<svg width="25" height="24" viewBox="0 0 25 24" fill="none" xmlns="http://www.w3.org/2000/svg">
<circle cx="12.5" cy="12" r="12" fill="#303030"/>
<path fill-rule="evenodd" clip-rule="evenodd" d="M11.1 10.3425V9.73406C10.8888 9.70416 10.6759 9.68863 10.4626 9.68762C7.85436 9.68762 5.73242 11.8099 5.73242 14.4182C5.73242 16.0181 6.53203 17.4344 7.75182 18.2908C6.93507 17.4173 6.481 16.266 6.48166 15.0702C6.48166 12.4991 8.54321 10.4026 11.1 10.3425Z" fill="#00F2EA"/>
<path fill-rule="evenodd" clip-rule="evenodd" d="M11.21 17.2303C12.3737 17.2303 13.3231 16.3046 13.3663 15.1509L13.3702 4.852H15.2517C15.2115 4.63697 15.1912 4.4187 15.191 4.19995H12.6214L12.6171 14.4992C12.5742 15.6525 11.6245 16.5779 10.4612 16.5779C10.1119 16.578 9.7679 16.4929 9.45898 16.3299C9.65844 16.6082 9.9213 16.835 10.2258 16.9916C10.5303 17.1482 10.8677 17.23 11.21 17.2303ZM18.7662 8.34773V7.77534C18.0747 7.77599 17.3981 7.57485 16.8193 7.19655C17.3268 7.78084 18.01 8.18475 18.7666 8.34773" fill="#00F2EA"/>
<path fill-rule="evenodd" clip-rule="evenodd" d="M16.8217 7.19612C16.2544 6.54709 15.942 5.71427 15.9424 4.85229H15.2539C15.3431 5.32872 15.5279 5.7821 15.7974 6.18498C16.0669 6.58785 16.4154 6.93184 16.8217 7.19612ZM10.4629 12.2575C9.89019 12.2581 9.34114 12.4859 8.93616 12.8909C8.53121 13.2959 8.30342 13.8449 8.30273 14.4176C8.30312 14.8116 8.41115 15.198 8.61519 15.535C8.81922 15.872 9.11146 16.1469 9.46035 16.3299C9.1947 15.9635 9.05166 15.5226 9.05163 15.0701C9.05218 14.4973 9.27994 13.9481 9.68492 13.5431C10.0899 13.1381 10.639 12.9102 11.2118 12.9095C11.4344 12.9095 11.6477 12.9463 11.8492 13.0096V10.386C11.638 10.3561 11.4251 10.3406 11.2118 10.3395C11.1743 10.3395 11.1375 10.3417 11.1003 10.3424V12.3575C10.8942 12.2919 10.6792 12.2582 10.4629 12.2575Z" fill="#FF004F"/>
<path fill-rule="evenodd" clip-rule="evenodd" d="M18.7679 8.34765V10.3449C17.4352 10.3449 16.2008 9.91866 15.1925 9.19515V14.4177C15.1925 17.0258 13.0709 19.1478 10.4627 19.1478C9.4548 19.1478 8.52013 18.8298 7.75195 18.2903C8.1936 18.7666 8.72885 19.1465 9.32418 19.4063C9.91951 19.666 10.5621 19.8 11.2116 19.7999C13.8198 19.7999 15.9418 17.6779 15.9418 15.0701V9.84755C16.9833 10.5965 18.2342 10.9988 19.5171 10.9973V8.42698C19.2599 8.42698 19.0098 8.39909 18.7679 8.34729" fill="#FF004F"/>
<path fill-rule="evenodd" clip-rule="evenodd" d="M15.1912 14.4176V9.19516C16.2327 9.94422 17.4836 10.3465 18.7666 10.3449V8.34766C18.0102 8.18451 17.327 7.78047 16.8197 7.19612C16.4134 6.93184 16.0649 6.58785 15.7955 6.18498C15.526 5.7821 15.3411 5.32872 15.2519 4.85229H13.3704L13.3665 15.1512C13.3233 16.3045 12.374 17.2303 11.2103 17.2303C10.8679 17.2299 10.5305 17.148 10.226 16.9915C9.92154 16.8349 9.65868 16.6081 9.4592 16.3299C9.11025 16.1469 8.81791 15.8721 8.61381 15.5351C8.40971 15.1981 8.30162 14.8117 8.30123 14.4176C8.30188 13.8449 8.52967 13.2959 8.93465 12.8909C9.3396 12.4859 9.88869 12.2581 10.4614 12.2575C10.6836 12.2575 10.8969 12.2939 11.0988 12.3575V10.3424C8.54202 10.4024 6.48047 12.499 6.48047 15.0701C6.48047 16.3134 6.96353 17.4453 7.75064 18.2907C8.54413 18.8493 9.49102 19.1487 10.4614 19.1478C13.0696 19.1478 15.1912 17.0259 15.1912 14.4176Z" fill="white"/>
</svg>
